<svg id="Logo" xmlns="http://www.w3.org/2000/svg" viewBox="0 0 1076.81 1380"><defs><style>.cls-1{fill:#0b0024;}.cls-2{fill:#fff;}</style></defs><title>LOGO</title><g id="fond1"><rect class="cls-1" x="-45.26" y="217.19" width="1192.29" height="757.92" transform="translate(1147.04 45.26) rotate(90)"/></g><g id="fond2"><polygon class="cls-1" points="0 1067.86 706.5 222.08 1076.81 534.22 370.31 1380 0 1067.86"/></g><g id="developpeur"><path class="cls-2" d="M268.34,1011.27h17q10,0,14.13,2.74t5.27,9.09q1.1,6.35,1.1,21.26t-1.1,21.26q-1.1,6.35-5.27,9.09t-14.13,2.74h-17ZM285,1067.55q5.07,0,6.9-1.15t2.39-5.53a236.42,236.42,0,0,0,0-32.95q-.57-4.42-2.39-5.58t-6.9-1.15h-5.75v46.37Z"/><path class="cls-2" d="M321.49,1077.46v-66.19H352.9v9.91H332.41v17.89h17.72V1049H332.41v18.57H352.9v9.91Z"/><path class="cls-2" d="M376.94,1077.46l-13.79-66.19h11.21l10.34,54.07h.67l10.25-54.07h10.92l-13.79,66.19Z"/><path class="cls-2" d="M419.08,1077.46v-66.19h31.41v9.91H430v17.89h17.72V1049H430v18.57h20.49v9.91Z"/><path class="cls-2" d="M465.33,1077.46v-66.19h10.92v56h18.2v10.2Z"/><path class="cls-2" d="M512.16,1075.39q-4.12-2.84-5.17-9.33t-1.05-21.69q0-15.2,1.05-21.69t5.17-9.33q4.12-2.84,13.79-2.84t13.79,2.84q4.12,2.84,5.22,9.38t1.1,21.65q0,15.1-1.1,21.65t-5.22,9.38q-4.12,2.84-13.79,2.84T512.16,1075.39Zm20.21-8.27q1.72-1.2,2.25-5.77t.53-17q0-12.41-.53-17t-2.25-5.77q-1.72-1.2-6.42-1.2t-6.37,1.2q-1.68,1.2-2.2,5.72t-.53,17q0,12.51.53,17t2.2,5.72q1.67,1.2,6.37,1.2T532.37,1067.12Z"/><path class="cls-2" d="M561.77,1011.27h20.69q6.8,0,10.3,2.55a12.39,12.39,0,0,1,4.69,7.17,50.36,50.36,0,0,1,1.2,12.22,51.45,51.45,0,0,1-1.15,12,12.66,12.66,0,0,1-4.74,7.36q-3.59,2.69-10.49,2.69h-9.58v22.22H561.77Zm17.91,34.06a11.09,11.09,0,0,0,5.36-1,4.73,4.73,0,0,0,2.11-3.37,44.63,44.63,0,0,0,.48-7.79,43.89,43.89,0,0,0-.48-7.7,4.73,4.73,0,0,0-2.11-3.37,10.83,10.83,0,0,0-5.27-1h-7.09v24.15Z"/><path class="cls-2" d="M612.52,1011.27h20.69q6.8,0,10.3,2.55a12.39,12.39,0,0,1,4.69,7.17,50.36,50.36,0,0,1,1.2,12.22,51.45,51.45,0,0,1-1.15,12,12.66,12.66,0,0,1-4.74,7.36q-3.59,2.69-10.49,2.69h-9.58v22.22H612.52Zm17.91,34.06a11.09,11.09,0,0,0,5.36-1,4.73,4.73,0,0,0,2.11-3.37,44.63,44.63,0,0,0,.48-7.79,43.89,43.89,0,0,0-.48-7.7,4.73,4.73,0,0,0-2.11-3.37,10.83,10.83,0,0,0-5.27-1h-7.09v24.15Z"/><path class="cls-2" d="M663.28,1077.46v-66.19h31.41v9.91H674.2v17.89h17.72V1049H674.2v18.57h20.49v9.91Z"/><path class="cls-2" d="M747.36,1011.27v37q0,13-1.15,18.9t-5.08,8.47q-3.93,2.55-12.93,2.55t-12.93-2.55q-3.93-2.55-5-8.47t-1.1-18.9v-37h10.92v41.17a88.75,88.75,0,0,0,.43,10.73q.43,3,2.06,4.09t5.65,1.06q4.12,0,5.75-1.06t2.06-4.09a88.75,88.75,0,0,0,.43-10.73v-41.17Z"/><path class="cls-2" d="M791.41,1077.46l-7.09-24.15h-9.38v24.15H764v-66.19h21.26q6.9,0,10.39,2.41a11.68,11.68,0,0,1,4.69,6.83,46.48,46.48,0,0,1,1.2,11.74,42.63,42.63,0,0,1-1.39,11.83,11,11,0,0,1-5.6,6.93l8.33,26.46Zm-3.45-35a4.6,4.6,0,0,0,2.15-3.17,34.19,34.19,0,0,0,.53-7.07,33.48,33.48,0,0,0-.53-7,4.58,4.58,0,0,0-2.15-3.13,11.32,11.32,0,0,0-5.27-.91h-7.76v22.22h7.76A11.31,11.31,0,0,0,788,1042.49Z"/></g><g id="carron"><path class="cls-2" d="M348.32,973.24a53.71,53.71,0,0,1-31.5,10.08,55.1,55.1,0,0,1,0-110.2,53.59,53.59,0,0,1,31.5,9.92l-6.9,14.48a37.43,37.43,0,0,0-24.6-8.5,39.28,39.28,0,1,0,25.07,69.58Z"/><path class="cls-2" d="M372.14,966l-7.68,17.32H347.85l47.48-110.67L443,983.31H425.89L418.52,966Zm23.19-52.74-16.61,38.41h33.22Z"/><path class="cls-2" d="M518.82,983l-16.92.16-.16-.32-18.49-36a38.39,38.39,0,0,1-4.39.31l-.31.16H462.09v36.05H447.36l.16-110.2h31.34A37.06,37.06,0,0,1,498.29,941ZM500,910.11a22.19,22.19,0,0,0-22.1-22H462.09V932.3h15.83A22.22,22.22,0,0,0,500,910.11Z"/><path class="cls-2" d="M601.87,983l-16.93.16-.16-.32-18.49-36a38.42,38.42,0,0,1-4.39.31l-.31.16H545.14v36.05H530.41l.16-110.2h31.34A37.06,37.06,0,0,1,581.34,941Zm-18.81-72.89a22.19,22.19,0,0,0-22.1-22H545.14V932.3H561A22.22,22.22,0,0,0,583.07,910.11Z"/><path class="cls-2" d="M711.57,927.9c0,30.38-23,55.26-53.44,55.26-28.83,0-52-24.87-52-55.26,0-30.23,23.19-54.94,52-54.94C688.53,873,711.57,897.67,711.57,927.9Zm-15,0c0-21.88-16.45-39.67-38.39-39.67-20.53,0-37,17.79-37,39.67,0,22.2,16.45,40.14,37,40.14C680.07,968,696.52,950.09,696.52,927.9Z"/><path class="cls-2" d="M802.78,873.11v110.2H785.54L737.43,900v83.28H722.7V873.11h17.39l48.27,85.32V873.11Z"/></g><g id="guilhem"><path class="cls-2" d="M346.74,823.11c-7.32,13.32-21,22.19-36.48,22.19-23.23,0-42.16-19.78-42.16-44.13s18.94-44.39,42.16-44.39a41,41,0,0,1,22.85,7.1l-2.65,4.69a37.12,37.12,0,0,0-20.2-6.47c-20.32,0-37.11,17.75-37.11,39.06,0,21.05,16.79,38.81,37.11,38.81,18.68,0,34.21-15.22,36.48-34.11H320v-4.69h31.69v44.26h-4.92Z"/><path class="cls-2" d="M401.78,845.31c-16.41,0-31.69-13.95-30.93-31.07V756.41h5.43v58a25.5,25.5,0,1,0,51,.13V756.41h5.3V814C432.2,831.74,418.44,845.31,401.78,845.31Z"/><path class="cls-2" d="M463.89,756v89.15h-4.8V756Z"/><path class="cls-2" d="M503.15,756.66v83.83H543.8v5.07h-46.2v-88.9Z"/><path class="cls-2" d="M620.42,845.31V805.23H570.56v40.07h-5.18v-89h5.18V800h49.86V756.28h5.3v89Z"/><path class="cls-2" d="M657,761.86v38H691.5v4.95H657v35.64h44.06v5.07H652V757h50.24v4.82Z"/><path class="cls-2" d="M763.45,845.43l-32.95-83.06v82.94h-5l.88-89.53,6.94.13,30.17,76.6,29.92-76.6,6.94-.13,1.14,89.53h-5V762.37Z"/></g><g id="mono"><path class="cls-2" d="M669.32,101.61c-93.18,0-176.7,42.24-232.67,108.63l91.23,91.64c32.23-43.28,83.62-71.37,141.44-71.37a175.89,175.89,0,0,1,134.1,62.13V132.88A301.85,301.85,0,0,0,669.32,101.61Z"/><polygon class="cls-2" points="747.69 370.16 745.67 370.16 687.91 370.16 624.09 370.16 624.09 466.62 689.29 466.62 771.32 549.02 803.42 581.27 803.42 580.75 803.42 578.99 803.42 578.48 803.42 520.37 803.42 466.62 803.42 370.16 747.69 370.16"/><path class="cls-2" d="M803.42,583.54v58.32H687.91v-60c-5.54.53-11.15.81-16.82.81a175.07,175.07,0,0,1-102.52-33h0l-1.16-.85a177.59,177.59,0,0,1-43.74-240.92l-91.79-92.2A306.69,306.69,0,0,0,475.32,640l1.09.93a303.2,303.2,0,0,0,386.46,2.38Z"/></g></svg>